<svg class="svg-icon" style="width: 1em;height: 1em;vertical-align: middle;fill: currentColor;overflow: hidden;" viewBox="0 0 1024 1024" version="1.1" xmlns="http://www.w3.org/2000/svg"><path d="M416.22 821.62m-49.29 0a49.29 49.29 0 1 0 98.58 0 49.29 49.29 0 1 0-98.58 0Z"  /><path d="M684.4 821.62m-49.29 0a49.29 49.29 0 1 0 98.58 0 49.29 49.29 0 1 0-98.58 0Z"  /><path d="M876.16 338.44c-13.54-21.56-36.81-34.42-62.26-34.42H344.01l-4.48-35.09c-5.23-44.86-43.23-78.69-88.39-78.69h-86.97c-15.26 0-27.63 12.37-27.63 27.63s12.37 27.63 27.63 27.63h86.97c17.11 0 31.52 12.82 33.5 29.82l3.66 28.7 43.1 337.51 3.27 25.58c5.23 44.86 43.23 78.69 88.39 78.69H736.1c15.26 0 27.63-12.37 27.63-27.63s-12.37-27.63-27.63-27.63H423.05c-17.11 0-31.51-12.82-33.49-29.81l-2.45-19.19h328.86c31.65 0 61-18.41 74.76-46.92l89.36-185.11c11.08-22.94 9.6-49.51-3.93-71.07z m-45.83 47.03l-89.36 185.11c-4.6 9.53-14.41 15.68-24.99 15.68H380.05l-28.98-226.98H813.9c9.1 0 13.84 5.98 15.45 8.55 1.61 2.57 4.94 9.43 0.98 17.64z"  /></svg>