<svg width="47" height="51" viewBox="0 0 47 51" fill="none" xmlns="http://www.w3.org/2000/svg">
<path d="M15.5437 30.7183C14.1974 30.147 12.8511 29.7288 11.6263 28.78C12.7296 28.7187 13.5698 29.239 14.5011 29.4533C13.175 28.3617 11.7579 27.3925 10.7254 25.9744C11.8186 26.6987 12.9119 27.4129 14.0051 28.1372C14.0355 28.1066 14.0658 28.0862 14.0861 28.0556C13.3471 27.2803 12.6183 26.5151 11.8794 25.7397C11.9097 25.6887 11.9401 25.6377 11.9705 25.5867C12.2741 25.7499 12.6284 25.852 12.8714 26.0866C13.8532 27.015 14.7946 27.9842 15.7462 28.9432C15.9992 29.1982 16.2219 29.4635 16.5054 29.7696C16.7078 29.5757 16.8596 29.4125 17.0216 29.2799C17.305 29.0656 17.2544 28.8616 17.0823 28.5963C15.817 26.6783 14.1367 25.1888 12.183 24.0564C10.6849 23.1892 9.06529 22.5363 7.50642 21.7814C6.83834 21.4549 6.18038 21.108 5.51229 20.7714C5.54266 20.6897 5.5629 20.6081 5.59327 20.5265C6.08927 20.6285 6.5954 20.7203 7.20275 20.8428C6.24111 20.0164 5.158 19.4757 4.55065 18.4249C4.58102 18.3841 4.60126 18.3331 4.63163 18.2923C5.84633 19.0472 7.05091 19.8022 8.39721 20.6387C7.49631 19.4043 6.6865 18.3025 5.88682 17.2006C5.92731 17.1598 5.9678 17.119 6.01842 17.0782C6.43344 17.4863 6.8687 17.8638 7.25336 18.2923C8.28586 19.4553 9.25762 20.6795 10.3306 21.7916C10.8266 22.3017 11.5048 22.6281 12.0919 23.0464C12.8916 23.6075 13.6812 24.1788 14.5517 24.8012C14.491 24.6175 14.4707 24.4951 14.41 24.4033C12.7398 21.5671 10.9076 18.833 8.57941 16.4865C8.17451 16.0784 7.62789 15.7826 7.10152 15.5377C6.20062 15.1296 5.2491 14.8236 4.32795 14.4665C3.77122 14.2523 3.2246 14.0074 2.83994 13.5177C2.86019 13.4565 2.88043 13.4055 2.90068 13.3443C3.70035 13.5483 4.51016 13.7626 5.30984 13.9666C3.74085 12.5383 2.03014 11.2529 0.977395 9.33487C2.40467 10.5183 3.83195 11.7017 5.2491 12.8954C5.28959 12.8648 5.33009 12.824 5.36045 12.7934C4.59114 11.6915 3.82183 10.5795 3.06264 9.4777C3.11325 9.42669 3.16386 9.37568 3.21448 9.32467C3.45742 9.52871 3.74085 9.70214 3.93317 9.94699C4.76322 11.0284 5.52241 12.1812 6.40307 13.232C7.15214 14.1196 8.04292 14.895 8.82235 15.752C9.54105 16.5375 10.199 17.3741 10.8772 18.1902C10.9785 18.3127 11.0898 18.4453 11.191 18.5677C11.2315 18.5473 11.272 18.5269 11.3226 18.4963C11.191 18.1902 11.0594 17.874 10.9177 17.5781C10.2496 16.1804 9.66252 14.7215 8.87296 13.3953C7.79998 11.5997 6.48405 9.9776 4.79359 8.71255C4.35832 8.38608 3.80158 8.24325 3.28534 8.02901C2.51602 7.70254 1.68598 7.4883 1.05838 6.77416C1.96941 6.55992 2.69822 7.17204 3.65986 7.32507C2.81969 6.40688 1.58475 6.07022 1.17985 4.92759C1.22034 4.86637 1.25071 4.81536 1.2912 4.75415C1.68598 4.9786 2.09088 5.21324 2.55651 5.4785C2.1921 4.82557 1.85805 4.23385 1.53413 3.63193C1.5645 3.60132 1.59487 3.57072 1.62524 3.54011C1.83781 3.71354 2.08075 3.85637 2.24271 4.06041C3.28533 5.37648 4.28746 6.72315 5.34021 8.0188C6.26136 9.15123 7.23312 10.2531 8.25549 11.3243C7.89108 10.4775 7.55704 9.62053 7.15214 8.79416C6.64601 7.74335 6.27148 6.62113 5.42119 5.77436C4.26722 4.63173 3.1335 3.4789 1.99977 2.31586C1.67585 1.9792 1.40254 1.60172 1.16973 1.17323C2.53627 1.82617 3.46754 3.0096 4.56077 3.9992C4.60126 3.9686 4.64175 3.94819 4.68224 3.91759C4.06477 2.64233 3.44729 1.37728 2.8197 0.10202C2.87031 0.0714143 2.93105 0.0306061 2.98166 0C3.96354 1.46909 4.95555 2.93819 5.93743 4.40728C5.9678 4.39708 6.00829 4.38688 6.03866 4.37668C5.84633 3.32587 5.654 2.28526 5.4718 1.23445C5.53253 1.21404 5.59327 1.19364 5.654 1.18344C5.73498 1.39768 5.83621 1.60172 5.8767 1.82617C6.06903 2.77496 6.18038 3.74415 6.45368 4.66233C6.80797 5.82537 7.28373 6.94759 7.73925 8.06981C7.99231 8.70234 8.31623 9.31447 8.69076 9.92659C8.73125 7.9984 8.15427 6.10082 8.37696 4.17264C8.4377 4.16244 8.48831 4.15223 8.54905 4.13183C8.72113 4.59092 8.88309 5.05001 9.05517 5.5091C9.08554 5.5091 9.11591 5.5091 9.14627 5.5091C9.29811 4.67253 9.44995 3.82577 9.62203 2.90758C10.1079 3.25445 10.0775 3.64213 10.0371 3.9992C9.86497 5.4785 9.67265 6.95779 9.49044 8.42689C9.4702 8.56971 9.49044 8.71255 9.54105 8.86558C10.0978 7.93719 10.3104 6.83537 11.0594 6.03961C11.11 6.04981 11.1607 6.07021 11.2011 6.08042C11.191 6.23345 11.2113 6.39668 11.1607 6.52931C10.9076 7.30466 10.6545 8.06981 10.3711 8.83497C9.90547 10.0796 9.6524 11.3549 9.8751 12.6709C9.99657 13.3749 10.3205 14.0482 10.614 14.7113C11.353 16.4049 12.1122 18.0882 12.8916 19.7614C13.2459 20.5265 13.6508 21.2611 14.0355 22.016C14.0962 22.0058 14.1468 21.9854 14.2075 21.9752C14.1367 21.5671 14.0962 21.1488 14.0051 20.7407C13.7723 19.7614 13.5091 18.782 13.2661 17.8026C13.0333 16.8844 12.7803 15.9764 12.5879 15.048C12.4766 14.4971 12.4563 13.9258 12.3956 13.3647C12.4665 13.3443 12.5272 13.3341 12.5981 13.3137C12.8511 13.9156 13.1143 14.5277 13.418 15.2623C13.5901 14.2216 13.7419 13.3035 13.8937 12.3853C13.9444 12.3853 13.995 12.3955 14.0355 12.3955C14.1063 13.6401 14.1772 14.895 14.2581 16.1396C14.2986 16.1498 14.3391 16.1498 14.3897 16.16C14.744 15.3643 14.8351 14.4359 15.6551 13.8442C15.5943 14.2114 15.5538 14.5685 15.4729 14.9358C15.1793 16.2519 14.7845 17.5577 14.5922 18.8942C14.491 19.6287 14.7035 20.4041 14.8149 21.159C14.9667 22.1486 14.987 23.2096 15.3818 24.087C16.06 25.5867 16.9912 26.964 17.8516 28.4637C18.1047 28.2188 18.2464 28.0658 18.4084 27.923C18.6513 27.7087 18.6513 27.5047 18.5299 27.2088C18.0845 26.1682 17.6593 25.1174 17.2544 24.0666C17.1329 23.7402 17.1127 23.3831 17.052 23.0362C17.1127 23.0158 17.1633 22.9852 17.224 22.9648C17.5682 23.6177 17.9225 24.2605 18.3477 25.0562C18.2667 23.4443 17.8618 21.9752 18.297 20.4959C18.8841 21.4447 18.6817 22.5975 19.0866 23.73C19.3194 22.9036 19.5219 22.1894 19.7243 21.4549C20.2304 21.5977 20.2304 21.914 20.1596 22.2404C19.9672 23.1994 19.7446 24.1584 19.5522 25.1174C19.4712 25.5459 19.4409 25.9846 19.4004 26.4233C19.3903 26.5253 19.4713 26.6273 19.532 26.8212C21.7691 24.6073 23.9555 22.4445 26.142 20.2817C25.0184 19.0166 24.6439 17.5679 25.0083 15.9866C25.15 15.3847 25.4638 14.7522 25.8788 14.3033C29.7861 10.0082 33.7339 5.74375 37.6715 1.4691C37.712 1.41809 37.7728 1.38748 37.8234 1.34667C38.5016 1.73435 38.5927 2.22405 38.1068 2.78516C35.1308 6.23345 32.1447 9.68174 29.1788 13.1402C28.9763 13.3749 28.703 13.6299 29.0269 13.9768C29.3002 14.2625 29.8367 14.3237 30.1404 14.0584C30.5655 13.6707 30.9603 13.2525 31.3652 12.8444C34.2299 9.91639 37.1047 6.9884 39.9694 4.06041C40.0908 3.93799 40.1819 3.79516 40.2832 3.68294C41.0424 4.09102 41.1436 4.58072 40.6273 5.17244C37.6817 8.57992 34.736 11.9976 31.8005 15.4051C31.5575 15.6805 31.1729 15.9662 31.6082 16.3845C31.922 16.6905 32.4686 16.6395 32.833 16.2723C34.5133 14.5583 36.1835 12.824 37.8841 11.1202C39.5645 9.44709 41.265 7.80456 42.996 6.12122C43.5527 6.40688 43.6641 6.93739 43.1883 7.4883C40.2325 10.906 37.2768 14.3339 34.321 17.7618C34.0983 18.0168 33.6833 18.2719 34.0781 18.7003C34.402 19.0574 34.9385 19.037 35.3434 18.6391C36.6087 17.3639 37.8639 16.0784 39.1191 14.793C41.093 12.773 43.0669 10.7427 45.0509 8.72274C45.1723 8.60032 45.2938 8.4983 45.5266 8.27386C45.7291 8.68194 45.9012 9.02881 46.0732 9.38588C44.8889 10.6713 43.7349 11.9364 42.581 13.1912C39.8378 16.1702 37.0642 19.1186 34.3716 22.1384C32.7216 23.9952 30.1505 24.036 28.5815 22.4853C28.5309 22.4343 28.4803 22.4037 28.3892 22.3323C28.2272 22.5261 28.0551 22.7097 27.9033 22.9036C26.4457 24.6481 24.988 26.3927 23.5304 28.1168C23.3077 28.3821 23.247 28.6065 23.3684 28.9432C23.6114 29.6471 23.7936 30.3715 24.0163 31.0856C24.0568 31.2284 24.1377 31.3611 24.2491 31.4937C24.411 30.3307 23.9758 29.137 24.5224 27.8822C24.6641 28.3719 24.8261 28.7494 24.8767 29.137C25.0083 30.2491 25.0589 31.3611 25.2107 32.4731C25.4132 33.9524 25.7067 35.4215 26.5773 36.6865C27.3567 37.8292 28.0956 39.0126 28.9257 40.1246C29.28 40.6041 29.7861 40.9816 30.2517 41.3693C31.345 42.2773 32.4483 43.1648 33.5517 44.0626C33.6529 44.1442 33.7643 44.1952 33.9161 44.2871C32.8127 42.9608 31.6993 41.7161 30.687 40.3899C29.6748 39.0738 28.541 37.8394 27.8426 36.3091C27.8932 36.2683 27.9539 36.2172 28.0045 36.1764C28.7131 37.0232 29.4217 37.8598 30.2113 38.7882C29.6444 37.4109 29.1281 36.1458 28.6119 34.8706C28.6726 34.84 28.7334 34.8196 28.7941 34.789C29.6039 36.3499 30.2619 38.0026 31.3956 39.3799C31.2134 38.1862 31.0312 37.0028 30.849 35.8092C31.5474 36.3193 31.5879 37.064 31.7499 37.7476C31.922 38.5025 32.0637 39.2677 32.2054 40.0328C32.418 41.155 32.833 42.165 33.663 42.9914C34.7664 44.1034 35.7483 45.3787 36.9529 46.3683C38.1878 47.3783 39.6049 48.1638 40.9816 48.9902C42.0546 49.6227 43.1883 50.1634 44.2917 50.7347C44.3929 50.7858 44.484 50.8572 44.5245 51C43.8362 50.7143 43.1074 50.4797 42.4494 50.1328C40.6577 49.1738 38.9065 48.123 37.1047 47.1742C35.394 46.2765 33.6732 45.3481 31.8713 44.6543C30.8793 44.2769 29.7152 44.3483 28.6321 44.2565C27.8426 44.185 27.053 44.1952 26.2635 44.1238C25.9902 44.1034 25.727 43.9606 25.4638 43.7872C26.3343 43.2771 27.2656 43.5729 28.1766 43.4097C26.8911 43.0118 25.6156 42.6139 24.3301 42.216C24.3402 42.1548 24.3503 42.1038 24.3706 42.0426C24.8463 41.7672 25.3423 41.8998 25.8383 42.012C26.3141 42.114 26.7898 42.2467 27.296 42.2569C26.1015 41.5223 24.907 40.7776 23.7126 40.043C24.9577 40.1654 26.0104 40.7469 27.0733 41.2979C28.3082 41.9508 29.5128 42.6751 30.7477 43.3383C31.2741 43.6137 31.841 43.8178 32.3876 44.0524C32.418 44.0116 32.4382 43.9708 32.4686 43.93C32.094 43.6137 31.7195 43.3077 31.345 42.9812C28.9257 40.8592 26.1622 39.2779 23.2773 37.921C22.5586 37.5843 21.678 37.5843 20.8682 37.4109C20.0786 37.2477 19.289 37.0946 18.5096 36.9008C18.2667 36.8396 18.044 36.6661 17.7302 36.5029C18.5096 36.0336 19.2182 36.4927 20.0482 36.4111C19.1878 35.9622 18.4388 35.5847 17.6593 35.1868C16.8799 36.1152 16.1106 37.0334 15.3413 37.9516C12.0413 41.91 8.74137 45.8582 5.44143 49.8166C4.62151 50.796 3.57889 51.1326 2.35406 50.8062C1.10899 50.4695 0.410536 49.6023 0.157473 48.3373C-0.105712 47.0314 0.248578 45.9704 1.21022 45.0216C5.8767 40.4409 10.5128 35.8398 15.1591 31.2386C15.2299 31.055 15.3615 30.902 15.5437 30.7183ZM22.923 28.7698C22.2752 29.5349 21.6881 30.2082 21.1313 30.9122C21.0402 31.0244 21.0402 31.2999 21.1111 31.4427C21.8298 32.9118 22.7712 34.2278 23.9049 35.4011C24.2086 35.7173 24.4718 36.0744 24.7653 36.3907C25.1297 36.7886 25.5245 37.1558 25.9092 37.5435C25.9699 37.4925 26.0306 37.4517 26.0914 37.4007C25.565 36.4723 25.0386 35.5337 24.5021 34.6053C23.7632 33.3199 23.004 32.0344 22.2853 30.7387C22.1537 30.5041 22.1638 30.1776 22.1031 29.892C22.174 29.8614 22.2448 29.8308 22.3157 29.8002C22.7611 30.5245 23.2166 31.2488 23.662 31.963C23.7025 31.9426 23.7328 31.9324 23.7733 31.912C23.5101 30.9122 23.2267 29.892 22.923 28.7698ZM18.793 33.7075C20.7467 35.8806 23.2368 37.0844 25.7472 38.2781C23.7126 36.4315 22.0221 34.1972 19.532 32.8098C19.289 33.1158 19.0461 33.4117 18.793 33.7075Z" fill="#417F56"/>
</svg>
